<?xml version="1.0" encoding="UTF-8" standalone="no"?>
<!-- Created with Inkscape (http://www.inkscape.org/) -->

<svg
   width="300"
   height="300"
   viewBox="0 0 79.374998 79.375"
   version="1.1"
   id="svg5"
   xml:space="preserve"
   sodipodi:docname="zest-logo-white-fill-outline.svg"
   inkscape:version="1.2.2 (b0a8486541, 2022-12-01)"
   xmlns:inkscape="http://www.inkscape.org/namespaces/inkscape"
   xmlns:sodipodi="http://sodipodi.sourceforge.net/DTD/sodipodi-0.dtd"
   xmlns="http://www.w3.org/2000/svg"
   xmlns:svg="http://www.w3.org/2000/svg"><sodipodi:namedview
     id="namedview7"
     pagecolor="#ffffff"
     bordercolor="#000000"
     borderopacity="0.25"
     inkscape:showpageshadow="2"
     inkscape:pageopacity="0"
     inkscape:pagecheckerboard="0"
     inkscape:deskcolor="#d1d1d1"
     inkscape:document-units="px"
     showgrid="false"
     inkscape:zoom="1.1893044"
     inkscape:cx="87.02566"
     inkscape:cy="226.60305"
     inkscape:window-width="1280"
     inkscape:window-height="987"
     inkscape:window-x="0"
     inkscape:window-y="0"
     inkscape:window-maximized="1"
     inkscape:current-layer="layer1"
     borderlayer="true"
     showborder="false" /><defs
     id="defs2" /><g
     inkscape:label="Layer 1"
     inkscape:groupmode="layer"
     id="layer1"
     transform="translate(12.05798,-0.08334207)"><path
       id="path1136"
       style="fill:#ffffff;stroke-width:0.264583"
       d="m 27.318359,14.896484 c -0.84526,0.54588 -1.525438,1.374142 -2.248331,2.088155 -2.640923,2.809606 -4.756243,6.073102 -6.536825,9.482158 -2.588825,-1.852048 -5.486149,-3.22224 -8.37199,-4.536189 C 9.5593203,21.704251 8.6145797,21.656449 8.4231477,22.425908 7.8294122,23.811296 7.8190103,25.35676 7.5510208,26.822917 7.1747947,29.575437 6.8977457,32.345295 6.8515625,35.125 4.7717664,34.646494 2.60676,34.283134 0.46679688,34.441406 c -0.99466031,0.216693 -1.00747463,1.400418 -0.82315051,2.195999 0.38432882,2.463252 0.87827998,4.913235 1.58291613,7.305954 -3.6649998,0.343572 -7.377755,0.94066 -10.7226563,2.554688 0.094547,1.150773 0.9136043,2.044548 1.4073294,3.043516 2.2350222,3.6513 5.174287,6.862138 8.50447778,9.54085 3.29131632,2.491836 7.14388772,4.24209 11.16436462,5.153915 2.57924,0.401 5.207371,0.241292 7.802954,0.12637 2.730653,-0.178172 5.378824,-1.044606 7.753996,-2.385431 0.51111,-0.346056 0.999173,0.325801 1.508344,0.434402 2.557956,1.22366 5.341547,1.990891 8.185846,2.060285 3.294839,0.245966 6.662379,0.03085 9.795844,-1.083837 6.680811,-2.174227 12.151586,-7.102839 16.039987,-12.846345 0.717309,-1.007193 1.378737,-2.054501 1.961857,-3.145288 -0.114711,-1.150022 -1.296893,-1.595231 -2.256147,-1.862138 -2.810381,-0.891169 -5.740115,-1.361113 -8.67354,-1.602705 0.97069,-3.00256 1.404433,-6.152326 1.949219,-9.25586 -2.487777,-0.449859 -5.012619,-0.04457 -7.470704,0.388672 -0.290121,-4.140275 -0.639097,-8.30196 -1.52539,-12.363281 -0.466281,-1.115713 -1.939135,-0.904756 -2.785966,-0.387475 -2.572972,1.187502 -5.098818,2.503568 -7.424972,4.129662 -1.993472,-4.001895 -4.739435,-7.593578 -7.836426,-10.797473 -0.296153,-0.408629 -0.717222,-0.92248 -1.286621,-0.749402 z" /><path
       style="fill:#000000;stroke-width:0.264583"
       d="m 12.106597,63.268274 c -3.052918,-0.55241 -7.102115,-2.28163 -10.089681,-4.30881 -3.28794,-2.23101 -7.641182,-7.04069 -9.5547915,-10.55662 l -0.703085,-1.2918 0.94801,-0.39611 c 1.6067455,-0.67134 5.1848615,-1.42686 7.6327495,-1.61165 1.991058,-0.1503 2.308767,-0.23821 2.169052,-0.60014 -0.713987,-1.8496 -2.109214,-8.59937 -1.86068,-9.00151 0.137702,-0.22281 3.768151,0.11834 5.355973,0.5033 1.962592,0.47581 1.933358,0.50287 1.933358,-1.78947 0,-2.81644 1.032722,-10.96875 1.441254,-11.37728 0.22401,-0.22401 6.652294,3.07251 8.066936,4.13685 l 1.438399,1.0822 1.093875,-2.04324 c 1.899568,-3.54818 4.309493,-6.85346 6.598832,-9.05048 l 0.960565,-0.92183 1.696516,1.84787 c 2.281624,2.48517 4.339537,5.36453 5.694701,7.96782 l 1.119828,2.15121 1.634519,-1.14261 c 1.477608,-1.03292 5.571801,-3.21593 7.173594,-3.82493 0.364419,-0.13855 0.694346,-0.14156 0.777452,-0.007 0.287996,0.46599 1.172138,7.09733 1.350753,10.13108 0.100672,1.70987 0.241403,3.10885 0.312738,3.10885 0.07133,0 1.223877,-0.18651 2.561206,-0.41446 1.337328,-0.22796 2.909834,-0.37679 3.49446,-0.33073 l 1.062956,0.0837 -0.454134,2.64584 c -0.249774,1.45521 -0.706204,3.49211 -1.014293,4.52644 -0.308089,1.03433 -0.56016,1.93998 -0.56016,2.01256 0,0.0726 1.101328,0.21179 2.447396,0.30938 3.224471,0.23377 8.665104,1.59184 8.665104,2.16295 0,0.0774 -0.613752,1.05805 -1.363893,2.17926 -5.088273,7.6053 -11.388891,12.21345 -18.722903,13.69359 -1.698852,0.34286 -3.04874,0.41759 -5.688541,0.31491 -3.706934,-0.14418 -5.685536,-0.61105 -8.730654,-2.06009 l -1.565368,-0.74489 -1.477341,0.74497 c -2.951051,1.4881 -4.868859,1.92277 -8.885673,2.01393 -2.037292,0.0462 -4.268855,-0.0181 -4.959029,-0.143 z m 9.192362,-3.21698 c 1.058082,-0.34134 1.058146,-0.34144 0.264584,-0.4348 -2.858394,-0.33625 -7.057778,-1.77204 -9.572084,-3.27275 -2.06139,-1.23037 -5.620496,-4.64892 -6.98459,-6.70875 L 3.868187,47.915544 H 2.221952 c -1.527251,0 -5.582639,0.62667 -5.861774,0.9058 -0.214805,0.2148 3.026306,3.99707 4.888007,5.70414 2.946987,2.70221 6.981449,4.82175 10.790359,5.66881 2.175621,0.48384 7.575846,0.40045 9.260415,-0.143 z m 23.283333,-0.22438 c 3.791815,-1.19355 8.280028,-3.92218 10.746016,-6.5331 1.276623,-1.35165 3.409191,-4.02603 3.409191,-4.27535 0,-0.38613 -2.543471,-0.889 -5.225521,-1.03315 -1.80309,-0.0969 -2.711979,-0.0531 -2.711979,0.13084 0,0.51321 -3.633038,4.98226 -4.93064,6.06524 -3.270305,2.72941 -6.346152,4.17695 -10.812067,5.08831 l -2.38125,0.48594 1.058334,0.28006 c 1.914458,0.50661 2.348743,0.54154 5.688541,0.45746 2.493868,-0.0628 3.762809,-0.22665 5.159375,-0.66625 z m -20.240624,-3.44911 c 0,-0.57037 -2.924548,-6.03856 -4.172094,-7.8008 -1.469776,-2.07614 -3.911613,-4.55082 -5.651909,-5.72792 -1.404905,-0.95024 -3.156754,-1.88472 -3.287725,-1.75375 -0.163732,0.16373 0.624822,2.8996 1.355693,4.70355 1.87044,4.61665 5.651392,8.42736 10.289124,10.37011 1.276953,0.53491 1.466911,0.56195 1.466911,0.20881 z m 8.985953,-0.84558 c 1.812578,-0.89438 2.734841,-1.58698 4.668228,-3.50573 1.991839,-1.97676 2.614176,-2.80383 3.591064,-4.77241 1.175865,-2.36955 2.29558,-5.81507 1.989295,-6.12136 -0.215985,-0.21598 -2.360144,1.04878 -4.167322,2.45817 -1.669143,1.30173 -3.365156,3.1995 -4.928928,5.51528 -1.488805,2.20476 -4.131207,7.54062 -3.734234,7.54062 0.177684,0 1.339539,-0.50155 2.581897,-1.11457 z m -19.487372,-2.12657 c -2.813863,-2.91197 -4.85338,-7.49626 -5.756895,-12.93996 -0.151993,-0.91577 -0.234564,-0.98429 -1.542285,-1.27988 -0.759929,-0.17177 -1.590051,-0.36946 -1.844712,-0.43932 -1.098365,-0.30132 -0.110149,3.6162 1.876589,7.43923 1.378516,2.65265 3.722618,5.35289 6.24614,7.19513 1.998389,1.45888 2.416749,1.46904 1.021163,0.0248 z m 28.591776,-0.29765 c 2.843554,-2.03044 5.214945,-4.96898 6.675967,-8.27261 0.634574,-1.43488 1.849152,-5.8479 1.660675,-6.03385 -0.143417,-0.1415 -2.918234,0.38509 -3.406684,0.6465 -0.246665,0.13201 -0.546074,0.96927 -0.75972,2.12447 -0.744311,4.02453 -2.629934,8.36331 -4.810961,11.06994 -0.719346,0.8927 -1.234212,1.62309 -1.14414,1.62309 0.09007,0 0.893258,-0.52089 1.784863,-1.15754 z m -15.767237,-4.66329 c -0.09845,-3.16346 -0.209055,-3.85928 -0.967364,-6.08542 -0.470916,-1.38244 -1.223701,-3.16838 -1.672857,-3.96875 -2.278121,-4.05944 -6.366312,-8.03589 -10.852874,-10.55624 l -1.512686,-0.84976 -0.135633,0.60978 c -0.282263,1.26896 -0.675455,5.8299 -0.675455,7.83514 v 2.08686 l 1.974122,0.97566 c 5.402092,2.66986 9.741028,7.24363 12.530801,13.20898 l 0.966014,2.06563 0.228544,-0.875 c 0.125699,-0.48125 0.178523,-2.48235 0.117388,-4.44688 z m 3.851593,1.5194 c 2.266425,-4.63241 6.655872,-9.00503 11.455482,-11.41158 1.819672,-0.91239 1.893583,-0.98705 2.05718,-2.078 0.155932,-1.03983 -0.169841,-6.11433 -0.541904,-8.44107 -0.17881,-1.11823 -0.18833,-1.11737 -2.482807,0.22412 -4.191108,2.45037 -8.196606,6.59801 -10.097434,10.45577 -1.517224,3.07924 -1.794986,4.11754 -1.508117,5.63753 0.136576,0.72364 0.250577,2.59563 0.253339,4.15998 0.0028,1.56434 0.04522,2.84427 0.09436,2.84427 0.04914,0 0.395592,-0.62596 0.769901,-1.39102 z m -2.312292,-12.43115 c 0.730287,-1.62858 2.743296,-4.62167 4.16369,-6.19089 l 1.230956,-1.35992 -0.681546,-1.55049 c -0.661495,-1.50487 -3.405094,-5.78175 -4.716756,-7.35275 -0.78083,-0.93521 -0.936397,-0.84409 -2.643811,1.54864 -1.597539,2.23876 -2.769915,4.24864 -3.466174,5.9423 l -0.585441,1.42409 1.931516,2.40715 c 1.062334,1.32393 2.385193,3.27142 2.939685,4.32774 0.554493,1.05633 1.079384,1.92188 1.166424,1.92344 0.08704,0.002 0.384693,-0.50212 0.661457,-1.11931 z"
       id="path1113" /></g></svg>
